<svg xmlns="http://www.w3.org/2000/svg" viewBox="0 0 256 256">
<path d="M16.125 27L19.125 30H3C2.175 30 1.46875 29.7062 0.88125 29.1187C0.29375 28.5312 0 27.825 0 27V3C0 2.175 0.29375 1.46875 0.88125 0.88125C1.46875 0.29375 2.175 0 3 0H16.5L24 9V27C24 27.5 23.8937 27.9562 23.6812 28.3687C23.4688 28.7812 23.175 29.125 22.8 29.4L15 21.675C14.575 21.95 14.1125 22.1562 13.6125 22.2938C13.1125 22.4313 12.575 22.5 12 22.5C10.35 22.5 8.9375 21.9125 7.7625 20.7375C6.5875 19.5625 6 18.15 6 16.5C6 14.85 6.5875 13.4375 7.7625 12.2625C8.9375 11.0875 10.35 10.5 12 10.5C13.65 10.5 15.0625 11.0875 16.2375 12.2625C17.4125 13.4375 18 14.85 18 16.5C18 17.075 17.9313 17.6125 17.7938 18.1125C17.6562 18.6125 17.45 19.075 17.175 19.5L21 23.4V10.05L15.075 3H3V27H16.125ZM12 19.5C12.825 19.5 13.5312 19.2062 14.1187 18.6187C14.7062 18.0312 15 17.325 15 16.5C15 15.675 14.7062 14.9688 14.1187 14.3813C13.5312 13.7938 12.825 13.5 12 13.5C11.175 13.5 10.4688 13.7938 9.88125 14.3813C9.29375 14.9688 9 15.675 9 16.5C9 17.325 9.29375 18.0312 9.88125 18.6187C10.4688 19.2062 11.175 19.5 12 19.5Z" transform="translate(32 8) scale(8)" fill="currentColor"/>
</svg>
