<svg width="80" height="80" viewBox="0 0 80 80" fill="none" xmlns="http://www.w3.org/2000/svg">
<rect width="80" height="80" rx="24" fill="#002C6E"/>
<rect width="80" height="80" rx="24" fill="white" fill-opacity="0.01"/>
<path d="M25 54.25V51.25H38.5V34.4875C37.85 34.2625 37.2875 33.9125 36.8125 33.4375C36.3375 32.9625 35.9875 32.4 35.7625 31.75H31L35.5 42.25C35.5 43.5 34.9875 44.5625 33.9625 45.4375C32.9375 46.3125 31.7 46.75 30.25 46.75C28.8 46.75 27.5625 46.3125 26.5375 45.4375C25.5125 44.5625 25 43.5 25 42.25L29.5 31.75H26.5V28.75H35.7625C36.0625 27.875 36.6 27.1562 37.375 26.5938C38.15 26.0312 39.025 25.75 40 25.75C40.975 25.75 41.85 26.0312 42.625 26.5938C43.4 27.1562 43.9375 27.875 44.2375 28.75H53.5V31.75H50.5L55 42.25C55 43.5 54.4875 44.5625 53.4625 45.4375C52.4375 46.3125 51.2 46.75 49.75 46.75C48.3 46.75 47.0625 46.3125 46.0375 45.4375C45.0125 44.5625 44.5 43.5 44.5 42.25L49 31.75H44.2375C44.0125 32.4 43.6625 32.9625 43.1875 33.4375C42.7125 33.9125 42.15 34.2625 41.5 34.4875V51.25H55V54.25H25ZM46.9375 42.25H52.5625L49.75 35.725L46.9375 42.25ZM27.4375 42.25H33.0625L30.25 35.725L27.4375 42.25ZM40 31.75C40.425 31.75 40.7812 31.6062 41.0688 31.3187C41.3563 31.0312 41.5 30.675 41.5 30.25C41.5 29.825 41.3563 29.4688 41.0688 29.1813C40.7812 28.8938 40.425 28.75 40 28.75C39.575 28.75 39.2188 28.8938 38.9312 29.1813C38.6437 29.4688 38.5 29.825 38.5 30.25C38.5 30.675 38.6437 31.0312 38.9312 31.3187C39.2188 31.6062 39.575 31.75 40 31.75Z" fill="#FEB300"/>
</svg>
