<svg xmlns="http://www.w3.org/2000/svg" viewBox="0 0 24 24" stroke-width="2">
<path d="M12.0002 14C15.6447 14 17.758 15.0899 18.9591 16.291C20.1749 17.5068 20.5002 18.8784 20.5002 19.5C20.5002 19.7875 20.4297 19.9699 20.3498 20.0898C20.2677 20.2129 20.1547 20.3011 20.0265 20.3652C19.8964 20.4303 19.7604 20.4654 19.6525 20.4834C19.6 20.4921 19.5572 20.4961 19.5294 20.498L19.5002 20.5H4.50015L4.47086 20.498C4.44312 20.4961 4.40026 20.4921 4.34781 20.4834C4.23996 20.4654 4.10386 20.4303 3.97379 20.3652C3.8456 20.3011 3.73259 20.2129 3.65054 20.0898C3.57058 19.9699 3.50015 19.7875 3.50015 19.5C3.50015 18.8784 3.82539 17.5068 5.04117 16.291C6.2423 15.0899 8.3556 14 12.0002 14ZM12.0002 3.5C13.061 3.5 14.0781 3.92173 14.8283 4.67188C15.5784 5.42202 16.0002 6.43913 16.0002 7.5C16.0002 8.56087 15.5784 9.57798 14.8283 10.3281C14.0781 11.0783 13.061 11.5 12.0002 11.5C10.9393 11.5 9.92217 11.0783 9.17203 10.3281C8.42188 9.57798 8.00015 8.56087 8.00015 7.5C8.00015 6.43913 8.42188 5.42202 9.17203 4.67188C9.92217 3.92173 10.9393 3.5 12.0002 3.5Z" fill="currentColor" stroke="currentColor"/>
</svg>
